<svg xmlns="http://www.w3.org/2000/svg" xmlns:xlink="http://www.w3.org/1999/xlink" width="2500" height="314" viewBox="0 0 2500 314">
  <defs>
    <clipPath id="clip-Web_1920_1">
      <rect width="2500" height="314"/>
    </clipPath>
  </defs>
  <g id="Web_1920_1" data-name="Web 1920 – 1" clip-path="url(#clip-Web_1920_1)">
    <rect width="2500" height="314" fill="#fff"/>
    <g id="g10" transform="translate(497.001 317.569)">
      <g id="g12" transform="translate(-0.001 -317.569)">
        <path id="path14" d="M73.112-247.933C21.9-237.13-18.395-178.342,8.7-117.077,25.01-82.542,58.95-65.592,82.958-64.323c9.547-10.4,39.427-42.163,49.359-52.927-40.107,0-48.443,1.013-57.2-3.76-30.673-16.722-31.108-60.776,5.685-74.066,21.268-6.64,51.786,6.493,51.786,41.168,0,12.6.315-.231-.2,36.659v49.31H186.05v-90.344c0-50.613-46.924-101.706-112.938-89.649" transform="translate(0.001 317.569)" fill="#5e0e56"/>
        <path id="path16" d="M293.5-67.9h55.669V-317.569H293.5V-67.9" transform="translate(27.326 317.569)" fill="#5e0e56"/>
        <path id="path18" d="M210.858-67.9h55.7V-317.569h-55.7V-67.9" transform="translate(19.633 317.569)" fill="#5e0e56"/>
        <path id="path20" d="M497.923-247.53,461.616-137.59,423.538-247.53H365.348L433.239-67.9,405.215,0h57.847L556.111-247.53H497.923" transform="translate(46.593 317.569)" fill="#5e0e56"/>
        <path id="path22" d="M536.5-71.077c-9.013,0-15.9-7.113-15.9-16.514,0-9.221,6.885-16.31,15.9-16.31,8.9,0,15.8,7.089,15.8,16.31C552.3-78.19,545.405-71.077,536.5-71.077Zm0-35.65a19.188,19.188,0,0,0-19.4,19.136,19.238,19.238,0,0,0,19.4,19.34A19.182,19.182,0,0,0,555.8-87.592,19.131,19.131,0,0,0,536.5-106.728" transform="translate(46.593 317.569)" fill="#5e0e56"/>
        <path id="path24" d="M536.147-88.773h-3.653v-7.141h4.625c2.367,0,4.945.443,4.945,3.432C542.064-88.941,539.225-88.773,536.147-88.773Zm9.415-3.548c0-4.314-2.521-6.424-7.877-6.424h-8.7v22.476h3.513v-9.683h3.7l6.131,9.683h3.751l-6.436-9.941c3.336-.359,5.92-2.047,5.92-6.111" transform="translate(46.593 317.569)" fill="#5e0e56"/>
      </g>
    </g>
    <text id="Bank" transform="translate(1160 273)" fill="#601163" font-size="335" font-family="MicrosoftYaHei-Bold, Microsoft YaHei" font-weight="700"><tspan x="0" y="0">Bank</tspan></text>
  </g>
</svg>
