<svg xmlns="http://www.w3.org/2000/svg" xmlns:xlink="http://www.w3.org/1999/xlink" width="2500" height="314" viewBox="0 0 2500 314">
  <defs>
    <linearGradient id="linear-gradient" x1="-2.65" y1="-1.827" x2="-2.66" y2="-1.842" gradientUnits="objectBoundingBox">
      <stop offset="0" stop-color="#f9a020"/>
      <stop offset="0.204" stop-color="#f99d20"/>
      <stop offset="0.435" stop-color="#f79320"/>
      <stop offset="0.62" stop-color="#f68820"/>
      <stop offset="0.797" stop-color="#f57e20"/>
      <stop offset="1" stop-color="#f47521"/>
    </linearGradient>
    <radialGradient id="radial-gradient" cx="0.699" cy="0.863" r="0.88" gradientTransform="matrix(-0.467, -0.885, 0.686, -0.362, -2.886, -4.883)" gradientUnits="objectBoundingBox">
      <stop offset="0" stop-color="#ff932c"/>
      <stop offset="0.568" stop-color="#e86d20"/>
      <stop offset="0.86" stop-color="#e85718" stop-opacity="0.867"/>
      <stop offset="1" stop-color="#640000"/>
    </radialGradient>
    <clipPath id="clip-Web_1920_1">
      <rect width="2500" height="314"/>
    </clipPath>
  </defs>
  <g id="Web_1920_1" data-name="Web 1920 – 1" clip-path="url(#clip-Web_1920_1)">
    <rect width="2500" height="314" fill="#9a8181"/>
    <g id="Page-1" transform="translate(246.245 33.544)">
      <g id="Artboard-Copy" transform="translate(0 0.041)">
        <g id="Discover-Card">
          <path id="Shape" d="M101.7,8.3H0V234.431H100.3c53.6,0,92.1-7.939,126.5-26.378,39.9-21.128,64.6-53.652,64.6-87.136C291.4,54.909,213.1,8.3,101.7,8.3Zm79.8,169.854c-22,12.293-49.5,17.606-94.8,17.606H68.8V46.138H86.7c44,0,71.5,5.25,94.8,18.5C206.2,78.726,220,99.854,220,120.981c-.1,21.96-13.8,43.92-38.5,57.173Z" transform="translate(0 -0.041)"/>
          <rect id="Rectangle-path" width="68.7" height="226.131" transform="translate(323 8.259)"/>
          <path id="Shape_1_" d="M560.8,94.146c-41.2-9.89-53.6-16.178-53.6-28.819,0-14.41,22-25.217,50.9-25.217,20.6,0,37.1,5.371,56.4,18.929l35.7-31.5C620,10.439,585.6,1.4,545.7,1.4c-63.2,0-110,28.819-110,66.612,0,32.422,22,48.6,86.6,63.926,27.5,6.288,41.2,10.807,48.1,13.493,13.7,5.371,20.6,14.41,20.6,24.3,0,18.929-23.4,32.422-53.6,32.422-33,0-59.1-10.807-75.6-30.588l-44,26.985c31.6,30.588,70.1,44.08,122.3,44.08,71.5,0,122.3-31.5,122.3-76.5.1-35.959-23.2-53.054-101.6-71.983Z" transform="translate(-37.88 -0.041)"/>
          <path id="Shape_2_" d="M684.5,121.842c0,68.582,81.1,120.889,186.9,120.889,30.2,0,55-3.61,86.6-13.52V175.986c-27.5,18.048-52.2,25.267-83.8,25.267-70.1,0-118.2-33.405-118.2-80.264,0-44.168,50.9-79.411,115.5-79.411,33,0,57.7,7.219,86.6,26.186V14.538C927.9,4.628,903.1.1,872.9.1,768.4.034,684.5,54.178,684.5,121.842Z" transform="translate(-62.97 -0.041)"/>
          <path id="Shape_3_" d="M1516.1,162.835,1422.6,8.3H1347l149.8,235.831H1534L1686.5,8.3h-74.2Z" transform="translate(-128.185 -0.041)"/>
          <path id="Shape_4_" d="M1718.1,234.431h195.2V196.593H1786.9V135h122.3V96.268H1786.9V46.138h126.4V8.3H1718.1Z" transform="translate(-152.034 -0.041)"/>
          <path id="Shape_5_" d="M2186.8,75.126c0-42.269-45.4-66.926-125.1-66.926h-103V234.4h68.7V143.845h9.6l94.8,90.686H2217l-111.3-95.105c52.3-7.045,81.1-29.908,81.1-64.3ZM2048,112.143h-20.6V43.488H2048c42.6,0,66,11.464,66,33.431,1.4,22.864-22,35.224-66,35.224Z" transform="translate(-182.079 -0.041)"/>
          <g id="Group" transform="translate(892.519)">
            <ellipse id="Oval" cx="186.9" cy="123.365" rx="186.9" ry="123.365" transform="translate(0 0)" fill="url(#linear-gradient)"/>
            <path id="Oval_1_" d="M1084.2,246.731c103.2,0,186.9-55.255,186.9-123.382S1187.5-.1,1084.2-.1,897.3,55.155,897.3,123.282,981,246.731,1084.2,246.731Z" transform="translate(-897.3 0.1)" opacity="0.65" fill="url(#radial-gradient)"/>
          </g>
          <g id="Group_1_" transform="translate(2012.955 0)">
            <path id="Shape_6_" d="M2033.7,23.3c0-6.9-4.1-9.6-12.4-9.6h-11v33h8.2V32.9l9.6,12.4h9.6l-11-13.7c4.3-.1,7-4.2,7-8.3ZM2020,27.4h0l-1.4-8.2h1.4c4.1,0,5.5,1.4,5.5,4.1s-2.8,4.1-5.5,4.1Z" transform="translate(-1993.8 0.1)"/>
            <path id="Shape_7_" d="M2022.7-.1c-16.5,0-28.9,12.4-28.9,28.9s12.4,28.9,28.9,28.9a29.1,29.1,0,0,0,28.9-28.9c-1.4-15.2-13.8-28.9-28.9-28.9Zm0,52.2c-12.4,0-23.4-11-23.4-23.4,0-13.7,9.6-23.4,23.4-23.4,12.4,0,22,11,22,23.4,0,13.8-9.6,23.4-22,23.4Z" transform="translate(-1993.8 0.1)"/>
          </g>
        </g>
      </g>
    </g>
  </g>
</svg>
