<?xml version='1.0' encoding='utf-8'?>
<svg xmlns="http://www.w3.org/2000/svg" viewBox="0 0 1920 1080"> <path d="m1107.7 232.7a11.678 11.678 0 0 1-2.6-3.71 16.336 16.336 0 0 1-0.4-1.672l2.214-7.039c3.659-11.636-12.58-20.56-19.524-9.745a29.959 29.959 0 0 0-1.73 3.084c-28.654-2.231-58.113-2.793-84.745 9.528-26.361 12.195-42.451 35.922-49.023 63.662-3.606 15.222-5.142 30.733-6.291 46.3a10.193 10.193 0 0 0 2.689 8.056q-1.85 7.193-3.491 14.392c-1.221 5.341 0.221 10.834 5.517 13.376a11.072 11.072 0 0 0 14.007-3.63 237.84 237.84 0 0 1 63.271-60.839q0.76 2.584 1.708 5.1a22.723 22.723 0 0 1-2.547 4.538c-4.611 6.4 0.034 17.07 8.274 17.1l7.226 0.026q1.143 1.284 2.354 2.511a10.6 10.6 0 0 0 7.06 8.675 49 49 0 0 1 22.7 17.466c2.829 3.84 8.989 4.622 13.066 2.649 4.559-2.206 6.573-7.041 6.031-11.89a173.6 173.6 0 0 1 19.764-101.42c3.633-6.686 1.282-13.286-5.53-16.513z" fill="#a18c77"/> <path d="M1207.821,359.027c7.949,9.034,24.548-1.015,18.176-12.043l-21.468-37.159a99.963,99.963,0,0,1-1.683-58.559c1.191-4.219.2-10.521-4.258-12.748-22.191-11.1-47.5-14.336-71.47-7.1-4.865,1.469-8.71,4.976-8.919,10.153-.217.257-.434.517-.639.8a150.643,150.643,0,0,0-27.841,96.889,141.538,141.538,0,0,0,3.376,23.212c-4.43-3.6-9.639-3.041-14.218.105-3.182,2.187-8.656,1.222-12.3-.264-5.4-2.206-9.468-6.664-13.017-11.163-9.367-11.874-16.972-25.366-25.19-38.043-5.308-8.188-16.119-8-20.291,1.177a136.945,136.945,0,0,1-61.815,64.4c.6-20.636-3.943-41.68,1.773-61.832,1.62-5.713-.934-11.971-6.776-14-5.368-1.867-12.375,1.037-14,6.776-4.184,14.75-3.893,29.605-3.113,44.77.683,13.295,1.851,27.447-2.392,40.292-2.37,7.173-6.624,13.488-9.244,20.55a49.341,49.341,0,0,0-2.225,23.9c2.121,15.724,9.333,31.331,15.051,46.021,5.16,13.256,9.921,27.388,17.828,39.309,8.468,12.766,21.795,19.927,37.267,17.909,15.138-1.974,28.049-12.087,39.755-21.1q19.722-15.179,39.352-30.477c23.223-18.1,51.885-36.715,58.766-67.056a26.906,26.906,0,0,0,.875-4.58c.018-.174.015-.347.024-.52q3.813,5.109,8.043,9.881c9.437,10.629,25.312-3.428,16.549-14.5l-9.074-11.471a129.378,129.378,0,0,1-19.4-41.717,137.233,137.233,0,0,1,5.566-23.824c10.622,28.531,24.474,56,47.921,74.672-.055.061-.111.118-.166.178-4.636,5.183-5.367,13.066,1.121,17.409,12.475,8.351,29.181,2.509,34.724-11.09a9.27,9.27,0,0,0,.344-6.095,52.023,52.023,0,0,1,5.612-2.138c8.173-2.573,11.732-10.874,6.287-18.074a195.173,195.173,0,0,1-35.236-78.335c1,1.8,1.987,3.6,2.984,5.384A121.217,121.217,0,0,0,1207.821,359.027ZM1115.1,298.952c.266.265.543.517.832.753a10.344,10.344,0,0,0-1.289,1.123C1114.792,300.2,1114.94,299.575,1115.1,298.952Zm-21.125,121.413a17.54,17.54,0,0,0-2.7.468,11.321,11.321,0,0,0-1.6-.209c.038-.03-.3-.145-1-.341l-.8-.488a11,11,0,0,1-3.911-4.928c-4.781-10.4,1.167-22.092,7.381-31.885-.281,5.319-.453,10.641-.563,15.94a27.514,27.514,0,0,0,.912,15.872,8.727,8.727,0,0,0,3.957,4.784C1095.1,419.87,1094.544,420.128,1093.974,420.364Z" fill="#f2dfd9"/> <path d="M868.779,719.246c-6.34-3.566-13.319-4.952-20.45-5.987-8.79-1.276-17.591-2.475-26.386-3.713-17.3-2.434-34.776-5.878-52.2-7.149-8.019-.585-16.611.053-23.8,3.974-6.875,3.749-12.078,9.545-16.459,15.939a255.693,255.693,0,0,0-23.535,43.316c-3.153,7.328-5.356,15.186-4.72,23.22.661,8.35,5.045,14.554,11.2,19.871.8.687,1.393,1.185,1.95,1.7a8.36,8.36,0,0,1,.8.96c-.027.061-.047.117-.082.182-.8,1.5-1.429,3.195-2.146,4.749-3.212,6.961-3.951,14.649.461,21.287,9.45,14.218,33.8,12.006,48.362,10.082,18.3-2.418,35.318-9.571,50.507-19.9,4.917-3.343,4.591-11.448,1.022-15.527-.07-.08-.144-.146-.215-.223a30.528,30.528,0,0,1,23.228-15.439c4.624-.6,8.811-5.311,8.98-9.961q.082-2.247.164-4.495a60.8,60.8,0,0,0,12.12-6.1c6.817-4.179,13.331-8.721,18.123-15.245C885.379,747.611,883.808,727.7,868.779,719.246Z" fill="#f2dfd9"/> <path d="M1170.934,494.229q-1.151-14.118-2.3-28.237a84.084,84.084,0,0,1,18.225-10.846,35.921,35.921,0,0,0,5.675.4c.769-2.116,1.539-4.231,2.3-6.352q1.457-10.327,2.92-20.652a113.983,113.983,0,0,0-12.344,3.4,18.359,18.359,0,0,1-1.882-1.11c-6.974-4.713-11.182-12.647-14.94-20.213-10.186-9.925-20.017-19.438-22.364-34.119-2.135-2.551-4.229-5.138-6.242-7.8-9.082-12.007-13.391-27.158-21.706-39.442.092,2.322.206,4.643.387,6.962l2.959,17.755a13.574,13.574,0,0,1-2.527,10.793l19.085,44.069c.116.053.236.094.351.153a10.777,10.777,0,0,1,6.479,6.5,8.93,8.93,0,0,1,1,4.576v1a12.059,12.059,0,0,1-1.576,5.881l-1.878,2.481a12.084,12.084,0,0,1-5.525,3.19l-3.087.386a11.559,11.559,0,0,1-10.94-7.49,8.846,8.846,0,0,1-.978-3.51,317.547,317.547,0,0,1-24.246,28.072c-8.664,12.941-19.917,24.165-32.526,33.921-11.581,8.961-24.04,16.674-35.579,25.7-13.174,10.3-25.991,21.06-39.668,30.7a10.174,10.174,0,0,1-8.229,1.381,69.79,69.79,0,0,1-9.165,5.544l-25.829-11.654c-5.232-11.45-9.609-23.367-14.136-35.105q-16.518-42.831-30.254-86.662a14.744,14.744,0,0,0-3-5.4l.122-.105a10.02,10.02,0,0,0,10.406.6c14.63-7.745,20.118-24.044,14.9-39.361-1.919-5.633-9.81-7.473-14.693-5.111a10.265,10.265,0,0,0-4.6,4.227,12.009,12.009,0,0,0-1.808,1.892c-8.508,11.141-17.592,23.425-30.878,29.1-9.381,4.008-21.349,2.932-27.572-5.059-4.334-5.565-13.746-4.608-17.409,1.121-13.578,21.237-43.238,25.625-65.1,36.832-27.052,13.869-47.6,37.653-62.177,63.931-16.388,29.548-25.763,61.983-36.212,93.923-2.723,8.323-5.538,16.619-8.6,24.823-1.51,4.041-3.573,8.1-4.8,12.222-1.349,4.524-.949,9.818-1.195,14.518-.965,18.438-2.088,36.877-2.873,55.324-.822,19.33.052,39.607,11.278,56.119,9.849,14.487,26.956,23.954,44.665,20.822,7.789-1.377,10.1-9.019,7.914-15.613.587,1.773.1-.295.279-.883.233-.785.349-1.354.656-2.24a47.763,47.763,0,0,1,2.179-5.051c1.6-3.307,3.337-6.562,5.087-9.79a122.176,122.176,0,0,1,12.957-19.991c9.79-11.8,23.213-17.067,38.337-17.717,18.151-.78,36.9,2.2,54.727,5.313,9.166,1.6,18.291,3.5,27.3,5.853,6.936,1.813,14.088,3.876,20.232,7.667a29.689,29.689,0,0,1,8.4,7.28,20.731,20.731,0,0,1,2.933,6.735,19.238,19.238,0,0,1,.2,7.29c-.756,3.034-1.182,3.723-4.184,5.971-3.822,2.862-4.634,8.964-2.649,13.066,2.277,4.705,6.989,6.339,11.89,6.031l109.248-6.875c6.4-.4,9.194-7.479,8.834-12.809-.668-9.886,7.857-18.947,15.69-24.066,12.489-8.162,28.164-9.882,42.45-12.789,2.575-.524,5.169-1.111,7.76-1.769-.08,3.422,1.567,6.809,4.729,9.49a15.9,15.9,0,0,0,15.741,3.09c3.023,4.353,9.479,6.646,14.216,3.991,6.107-3.422,13.472-6,14.645-13.787.784-5.2,1.039-10.509,1.713-15.73,1.388-10.757,3.163-21.487,5.5-32.08.748-3.392,1.558-6.768,2.4-10.138a184.53,184.53,0,0,0,8.177-28.084c.051-.249.1-.5.148-.747q1.193-3.618,2.459-7.211l6.325-16.887c2.56-6.834-1.6-12-6.957-13.645a7.3,7.3,0,0,1,1.053-4.14,70.3,70.3,0,0,0,4.7-8.1q1.374-3.007,2.778-6,3.213-6.85,6.586-13.624c4.376-8.733,9.1-17.26,13.73-25.859,3.225-5.994,1.886-12.16,1.354-18.689Q1171.648,503,1170.934,494.229Zm-23.9-64.777c.368.994.843,2.319,1.271,3.566A14.448,14.448,0,0,1,1147.034,429.452Z" fill="#8aaeff"/> <path d="m1315.8 176.46c-29.871 4.351-59.654 9.262-89.384 14.475a79.756 79.756 0 0 0-32.139 5.38 11.442 11.442 0 0 0-14.712-5.666l-45.552 18.914a9.578 9.578 0 0 0-4.656 4.25q-2.964 1.353-5.877 2.863c-12.531 6.533-3 26.364 9.582 19.8a108.63 108.63 0 0 1 42.082-12.028c-1.368 7.15 5.293 14 13.481 12.51a12.175 12.175 0 0 0 3.061 6.89c1.339 6.289 7.819 11.321 15.253 7.818l115.64-54.487c11.452-5.391 5.336-22.481-6.779-20.719z" fill="#8aaeff"/> <path d="m1180.7 727.63a483.14 483.14 0 0 1-60.353-1.4q-15.531-1.35-30.951-3.716c-9.969-1.53-19.841-3.785-29.846-5.046-18.223-2.3-38.1 0.934-50.27 15.924a32.321 32.321 0 0 0-6.314 28.054 622.15 622.15 0 0 1-84.122 9.509q-12.08 0.512-24.174 0.569-6.287 0.03-12.574-0.063c-4.4-0.065-9.717-0.99-13.92 0.389-4.333 1.422-7.313 5.666-10.4 8.865l-59.988 62.23a10.489 10.489 0 0 0-11.571 1.574c-4.088 3.577-5.437 11.5-1.022 15.527 18.463 16.843 37.576 34.169 61.8 42.114a80.038 80.038 0 0 0 37 3.495c13.216-2.024 25.76-7.853 38.085-12.779 47.328-18.914 94.91-37.613 144.24-50.713a542.56 542.56 0 0 1 86.3-16c7.411-0.726 10.593-9.579 7.914-15.613-9.979-22.48 1.635-51.87 24.106-62.053 9.368-4.246 7.263-21.295-3.938-20.867z" fill="#f5f5f7"/> <path d="m793.78 689.95-19.508-20.2a11.4 11.4 0 0 0-3.967-2.721q-3.469-3.671-6.765-7.486l-18.753-37.28a10.332 10.332 0 0 0-6.095-5.435c-0.547-1.874-1.055-3.767-1.475-5.7-3.005-13.829-24.654-9.875-21.643 3.976 4.64 21.349 15.5 39.376 28.969 55.621l3.554 7.065a10.17 10.17 0 0 0 7.964 5.852c6.826 7.183 14 14.07 21.171 20.814 4.325 4.068 10.747 5.2 15.527 1.022 4.312-3.78 5.164-11.236 1.021-15.528z" fill="#fff06a"/> <path d="m876.18 803.03-16.224-24.853c-3.247-4.974-8.855-7.935-14.693-5.111-4.822 2.333-8.381 9.683-5.111 14.693l16.224 24.853c3.247 4.974 8.855 7.936 14.693 5.111 4.821-2.334 8.381-9.684 5.111-14.693z" fill="#fff06a"/> <path d="M1528.37,188.648a523.479,523.479,0,0,0-136-13.256,11.661,11.661,0,0,0-9.874-4.852c-5.641.385-9.643,4.469-10.4,10.034a19.624,19.624,0,0,0-.167,3.131,9.583,9.583,0,0,0,.646,7.808c.146.237.278.479.42.718l2.427,28.443-.276.07q-9.966,2.627-19.934,5.247l-40.817,10.744c-5.74,1.511-9.969,6.658-8.834,12.809,1.016,5.506,7.036,10.354,12.809,8.834l44.614-11.743c13.5-3.553,30.937-5.5,41.4-15.578.433-.417.826-.853,1.226-1.286l80.879-10.241c5.795-.734,8.586-5.158,8.739-9.834,9.547-.356,19.117-.272,28.672.309a11.03,11.03,0,0,0,11.539-8.731C1536.383,196.373,1533.78,189.9,1528.37,188.648Z" fill="#ff656a"/> <path d="m1540.9 509.2-127-1.035c-5.938-0.048-11.339 3.9-11.829 10.108-0.442 5.608 4.143 11.78 10.108 11.829l0.773 6e-3c-6.111 5.855-3.794 19.11 6.5 19.2a1045.3 1045.3 0 0 0 107.27-4.633c5.877-0.556 9.789-7.244 8.848-12.7l6.448-0.978c12.137-1.846 11.486-21.697-1.121-21.797z" fill="#ff656a"/> <path d="m1554.1 238.46-45.5-23.544c-5.268-2.726-11.69-2.328-15.266 3a12.1 12.1 0 0 0-0.82 11.021 6.679 6.679 0 0 1-3.347 0.532c-14.131-1.561-15.738 20.255-1.721 21.936l59.66 7.154c10.411 1.252 16.944-14.95 6.994-20.099z" fill="#7fd2ff"/> <path d="m1551 631.44c-1.577-5.721-6.61-9.978-12.81-8.834a10.385 10.385 0 0 0-3.238 1.219l-42.991 2.212c-5.936 0.305-9.812 7.509-8.834 12.809a10.139 10.139 0 0 0 3.372 6.034c-3.254 7.334-5.123 15.212 1.925 20.5 4.582 3.435 9.625 2.657 14.935 1.992l15.639-1.957c9.96-1.247 22.471-0.833 29.255-9.529 5.491-7.042 5.004-16.272 2.747-24.446z" fill="#157eff"/> <path d="m1555.5 448.46a11.69 11.69 0 0 0 2.12-7.125c-0.346-5.064-4.475-10.435-10.034-10.4a541.06 541.06 0 0 1-133.83-15.8c-8.424-2.1-15.2 3.761-14.435 12.377l1.9 21.372c-2.737 4-2.229 9.784 1.018 13.63a55.163 55.163 0 0 0 0.918 6.54 11.887 11.887 0 0 0-3.153 9.941c1.164 6.306 6.869 9.361 12.809 8.834 3.453-0.306 6.908-0.575 10.364-0.826 6.917 1.018 14.489 0.513 20.876 0.589l96.774 1.146c8.138 0.1 12.182-6.774 11.406-12.863a14.847 14.847 0 0 0 8.983-9.837c2.054-6.683-0.715-13.323-5.716-17.578zm-132.88-6.3-0.227-2.542q3.534 0.777 7.078 1.5-3.428 0.508-6.851 1.045z" fill="#ff9fcd"/> <path d="m1557.9 670.07c-12.989-11.642-29.745-13.692-46.417-10.074-15.221 3.3-32.02 12.488-47.761 7.389-4.457-1.444-9.977 0.513-12.867 4.212-11.354 1.6-11.83 20.509 1.2 21.887q2.92 0.309 5.846 0.56a37.654 37.654 0 0 0 27.031 10.394c16.948-0.193 33.324-10.186 50.237-6.741 5.268 1.073 10.318-3.636 11.555-8.547 1.633-0.326 3.266-0.654 4.894-1.006 7.34-1.587 12.897-12.142 6.282-18.074z" fill="#ff9fcd"/> <path d="m1553.7 737.92a28.553 28.553 0 0 0-5.23-9.725c2.781-5.6 2.9-12.327-0.714-17.643-7.256-10.69-24.825-10.082-36.681-7.44-6.769-7.942-17.229-8.647-24.133-0.6-3.87 4.509-1.515 12.235 3 15.266a10.273 10.273 0 0 0 6.056 1.836c0.352 0.682 1.173 2.364 1.514 3.155a21.319 21.319 0 0 1 1.056 3.41 12.483 12.483 0 0 0 0.694 5.976c-0.057 5.709-1.891 11.716-5.5 15.629-3.339 3.616-4.919 8.375-2.649 13.065a11.256 11.256 0 0 0 11.89 6.031l32.871-5.489c5.748-0.96 11.211-2.216 15.084-6.936 3.847-4.691 4.507-10.848 2.742-16.535z" fill="#be8aff"/> <path d="m1549.7 374.82c-2.542-3.766-3.229-8.55-2.9-12.966a10.024 10.024 0 0 0-4.066-9.264 13.179 13.179 0 0 0-8.375-5.094l-48.887-9.835q-11.982-2.41-23.964-4.821c-8.048-1.616-15.878-2.927-24.055-1.251-13.875 2.844-9.908 24.489 3.975 21.643a23.71 23.71 0 0 1 4.22-0.456 16.409 16.409 0 0 0-2.309 7.306 24.207 24.207 0 0 0-0.063 5.026q-0.532 0.526-1.04 1.1c-6.454 7.334-3.45 17.438 6.392 19.242 5.173 0.948 9.6-1.328 12.672-4.983a31.46 31.46 0 0 1 6.854 0.543c7.871 1.107 15.707 2.588 23.548 3.894l48.86 8.135c4.256 0.709 8.876-2.456 10.623-6.1 2.082-4.326 1.113-8.269-1.485-12.119z" fill="#b4fff9"/> <g opacity=".2"> <path d="M824.477,782.174l-48.8-11.813c-5.77-1.4-11.918.781-14,6.776-1.806,5.193.973,12.6,6.776,14l39.8,9.634a8.665,8.665,0,0,0-3.5,1.123,77.01,77.01,0,0,1-30.813,10.4,48.73,48.73,0,0,1-13.986-.1,12.768,12.768,0,0,1-5.786-2.468,8.147,8.147,0,0,1-1.438-1.658c-1.659-5.7-6.551-9.989-12.809-8.834a12,12,0,0,0-8.6,7.484,65.032,65.032,0,0,0-2.732-8.124c-2.355-5.816-6-11.718-5.861-18.178.138-6.56,4.333-12.6,7.746-17.895,9.783-15.167,17.29-30.169,17.637-48.648.112-5.937-3.941-11.343-10.107-11.829-5.659-.446-11.716,4.145-11.829,10.107a58.664,58.664,0,0,1-4.229,21.426c-2.436,5.988-6.255,11.274-9.741,16.679q-1.123,1.741-2.2,3.523a9.636,9.636,0,0,0-5.336-4.283c-18.245-5.813-33.554-20.493-38.938-38.975-5.636-19.347-.4-41.651,13.57-56.259,2.484-2.6,4.7-6.473,3.569-10.262a66.322,66.322,0,0,1,11.011-60.289c3.631-4.7,1.7-12.115-3-15.266-5.209-3.494-11.621-1.715-15.266,3a86.964,86.964,0,0,0-15.643,71.787c-15.8,19.715-22.818,46.521-15.882,71.263a82.324,82.324,0,0,0,10.653,23.228,10.941,10.941,0,0,0,1.013,5.787c8.3,18.231,26.993,28.246,46.564,27.23a36.815,36.815,0,0,0-.327,19.754c1.789,6.649,5,12.66,7.352,19.086,2.258,6.159.492,10.765-.017,17.053-.657,8.1,2.621,15.941,9.87,19.994,6.832,3.821,14.563,3.215,22.041,2.333Q769.115,845.676,797,842.3c5.9-.7,9.864-7.231,8.834-12.809a10.877,10.877,0,0,0-1.031-3.024,87.44,87.44,0,0,0,9.527-4.77c5.126-3,7.846-9.039,5.111-14.693a11.179,11.179,0,0,0-4.255-4.555l2.067.5c5.77,1.4,11.918-.781,14-6.776C833.059,790.984,830.28,783.578,824.477,782.174Zm-87.229,45.147a37.21,37.21,0,0,1-4.569.421,8.843,8.843,0,0,1-1.284-.115c.282-1.824.741-4.662.8-5a34.547,34.547,0,0,0,.483-6.2,28.463,28.463,0,0,0,7.816,10.5C739.41,827.063,738.329,827.194,737.248,827.321Z"/> <path d="m929.87 390.13a52.559 52.559 0 0 0-2.966-19.922c-1.9-5.578-9.652-7.428-14.542-5.173-6.146-5.594-17.037-1.538-18.305 7.436-1.144 8.093-2.247 16.287-3.113 24.518-3.682-2.968-8.956-3.726-13.488 0.436-8.779 8.063-23.942 7.338-31.882-2.428-3.78-4.65-11.137-4.777-15.527-1.022a108.35 108.35 0 0 0-21.484 24.893 137.06 137.06 0 0 0-75.486 25.825 8.937 8.937 0 0 0-3.881 8.552 11.251 11.251 0 0 0-0.723 9.932l-1.879-0.494c-9.133-2.4-15.366 5.029-14.1 12.3a9.465 9.465 0 0 0-1.207 1.656l-41.74 73.046c-2.944 5.152-2.182 11.788 3 15.266 4.666 3.13 12.3 2.18 15.266-3l37.009-64.767 25.763 12.9c11 5.508 20.648-5.589 15.436-14.6a10.939 10.939 0 0 0 10.289-4.674c2.5-3.733 2.676-10.141-0.86-13.384l-8.659-7.941a89.2 89.2 0 0 0 14.088-3.955c8.288-3.066 7.463-14.534 1.34-19.036-0.569-0.419-1.16-0.8-1.747-1.188a112.18 112.18 0 0 1 33.556-4.589c3.729 0.065 8.056-1.323 10-4.836a91.713 91.713 0 0 1 13.486-18.611c15.279 10.438 37.124 10.306 51.949-1.206-1.133 24.773 1.291 49.424 12.731 72.192 3.436 6.837 10.809 7.175 15.85 4.045a10.186 10.186 0 0 0 6.254 0.738c5.3-0.978 10.606-7.1 8.834-12.81a123.19 123.19 0 0 1 1.05-77.694 10.084 10.084 0 0 0-4.312-12.405z"/> <path d="m1021.2 409.8a108.68 108.68 0 0 0-28.11-24.875c-12.029-7.386-24.376 10.832-12.263 18.269a90.514 90.514 0 0 1 23.825 21.11c8.81 11.077 25.362-3.423 16.548-14.504z"/> <path d="m887.59 701.33a58.882 58.882 0 0 0-47.889-14.61l-2.427-21.823a224.18 224.18 0 0 0 14.327-125.48c-2.463-13.967-24.1-9.967-21.643 3.976a201.39 201.39 0 0 1-11.947 110.65 9.046 9.046 0 0 0-3.076 7.072v0.052a197.77 197.77 0 0 1-14.763 26.847c-4.958 7.55 0.417 15.463 8.274 17.1l13.48 2.809c3.207 3.292 8.732 4.17 13.048 2.434 12.129-4.881 27.358-2.332 37.155 6.485 10.2 9.182 14.113 24.365 10.089 37.417-4.168 13.518 16.6 20.792 20.779 7.227 6.428-20.851 1.034-45.263-15.407-60.151z"/> <path d="m871.92 748.04-18.873-23.1c-8.953-10.96-25.515 3.528-16.549 14.5l18.873 23.1c8.953 10.964 25.515-3.524 16.549-14.5z"/> <path d="m969.05 873.76c-2.45-5.064-9.516-8.089-14.693-5.111-22.974 13.215-50.264 18.288-76.352 12.75a107.94 107.94 0 0 1-55.256-31.136 222.82 222.82 0 0 1 31.486-34.887c10.522-9.434-3.926-26.034-14.5-16.549a247.56 247.56 0 0 0-40.123 46.1 11.271 11.271 0 0 0 0.86 13.384c39.358 48.007 109.54 61.156 163.47 30.137 5.147-2.958 7.829-9.065 5.107-14.688z"/> <path d="m1014.6 491.53a98.533 98.533 0 0 1-25.637-15.519c-4.585-3.777-12.188-1.586-15.266 3-3.576 5.331-1.6 11.475 3 15.266a117.34 117.34 0 0 0 30.673 18.029c5.507 2.235 12.121-1.365 14-6.776 2.044-5.856-1.249-11.76-6.77-14z"/> <path d="m1038.9 216.71c-16.977-2.835-32.9 4.9-46.7 13.982-13.3 8.754-27.132 18.008-36.588 31.084-21.409 29.606-7.793 66.22-12.856 99.367-1.769 11.584 14 15.16 20.1 6.992 7.919-10.593 15.992-21.09 23.762-31.793a38.065 38.065 0 0 0 3.9-6.56 12.425 12.425 0 0 0 12.183-8.612 27.033 27.033 0 0 0 19.09-12.208c7.5-11.969-10.721-24.307-18.269-12.263-1.68 2.68-3.788 3.4-6.834 2.215a10.532 10.532 0 0 0-12.083 3.589 29.054 29.054 0 0 0-12.3 1.459c-7.857 2.671-7.46 12.587-2.6 17.73-0.753 1.134-1.611 2.736-1.859 3.074-0.853 1.164-1.72 2.318-2.584 3.473-0.226-4.37-0.451-8.742-0.549-13.12-0.289-12.9 0.25-27.106 7.327-38.353 7-11.129 18.717-18.622 29.333-25.95 10.566-7.294 22.535-14.385 35.806-12.17 5.863 0.979 11.391-4.551 11.829-10.107 0.501-6.364-4.231-10.848-10.108-11.829z"/> <path d="M1188.833,408.021c-13.783-6.4-22.89-20.122-30.018-32.976-9.877-17.81-18.528-36.362-27.66-54.561-4.6-9.168-16.281-6.665-19.932.237.76-7.234,1.723-14.248,2.65-20.807.832-5.885-4.447-11.383-10.107-11.829-6.244-.492-10.995,4.209-11.829,10.107-1.927,13.631-3.872,27.634-4.367,41.6a11.79,11.79,0,0,0-10.079-2.347,39.842,39.842,0,0,0,1.41-4.45,14.838,14.838,0,0,0-1.132-9.291,13.207,13.207,0,0,0-4.244-4.938c.121-.238.246-.473.364-.714,4.179-8.513-7.328-18-15.181-13.515a28.881,28.881,0,0,1-8.183,3.237,93.521,93.521,0,0,0,.9-18c-.295-5.928-3.657-11.321-10.108-11.829-5.331-.42-12.125,4.141-11.829,10.108a82.469,82.469,0,0,1-2.669,26.388c-1.485,5.334.721,12.482,6.776,14a54.518,54.518,0,0,0,6.869,1.268,9.755,9.755,0,0,0,2.428,4.432,16.137,16.137,0,0,0,11.771,5.3,21.146,21.146,0,0,0,4.756,13.1,20.455,20.455,0,0,0,5.647,4.691l-.453,1.159c-5.169,13.214,15.624,20.4,20.779,7.227l2.567-6.562a115.23,115.23,0,0,0,3.54,20.638,110.242,110.242,0,0,0,4.995,14.419c-5.375.545-10.006,4.27-10.459,10.03-.439,5.569,4.142,11.829,10.107,11.829a12.129,12.129,0,0,0,9.83-4.688,72.36,72.36,0,0,0,24.626,22.431c5.215,2.828,11.736,2.26,15.266-3,3.071-4.578,2.247-12.419-3-15.266-31.878-17.288-35.048-53.857-32.317-87.443a12.238,12.238,0,0,0,.809,2.066c9.795,19.521,18.886,39.637,29.9,58.508,9.93,17.008,22.186,31.793,40.35,40.226,5.392,2.5,12.189-1.559,14-6.776C1197.723,415.945,1194.239,410.531,1188.833,408.021Z"/> <path d="m1212.2 395.74a262.14 262.14 0 0 1-53.868-90.028c-1.982-5.61-9.767-7.494-14.693-5.111-5.846 2.829-7.1 9.066-5.111 14.693a278.54 278.54 0 0 0 57.122 94.951c9.539 10.418 26.15-4.022 16.55-14.505z"/> <path d="m1404 309.19a1825.3 1825.3 0 0 0-178.87 39.842c-0.171-0.256-0.341-0.512-0.537-0.764a298.89 298.89 0 0 1-37.576-63.118c-5.724-12.961-25.519-3.361-19.8 9.582a323.6 323.6 0 0 0 40.831 68.04c2.73 3.5 6.233 4.477 9.486 3.819 2.478 3.279 6.678 5.436 10.742 4.312a1825.3 1825.3 0 0 1 179.7-40.07c13.981-2.385 9.975-24.023-3.977-21.643z"/> <path d="m1330.9 188.27c-1.024-5.55-7.024-10.3-12.809-8.834a293.37 293.37 0 0 0-94.714 43.046 44.643 44.643 0 0 0-0.709-4.462c-2.985-13.735-12.135-26.571-26.087-30.6-5.705-1.647-11.978 0.952-14 6.776-1.874 5.388 1.046 12.349 6.776 14 7.438 2.147 11.092 8.78 12.156 16.532 1.559 11.361-4.09 23.227-8.29 33.439-2.261 5.5 1.384 12.128 6.776 14 5.88 2.045 11.737-1.265 14-6.776a161.72 161.72 0 0 0 7.494-21.375c3.777 1.644 8.206 0.8 11.767-1.758a264.22 264.22 0 0 1 88.807-41.187c5.752-1.449 9.961-6.687 8.833-12.801z"/> <path d="m1383.9 221.76-1.777 0.412c8.294-13.5 6.311-30.828 3.529-45.811-2.589-13.939-24.229-9.95-21.643 3.975 2.135 11.5 5.2 26.685-4.671 34.861-4.159 3.444-9.922 5.838-15.193 8.723-6.794 3.719-12.625 7.993-17.417 14.125-5.784 7.4 2.181 19.026 11.122 16.953l50.025-11.6c13.772-3.186 9.834-24.839-3.975-21.638z"/> <path d="m1528.3 235.1c-1.929-5.591-6.715-7.746-12.349-7.432l-41.963 2.332c-5.935 0.33-9.815 7.492-8.834 12.809a10.666 10.666 0 0 0 1.747 4.258l-23.726 9.481a9.807 9.807 0 0 0-11.03-4.888 1186.8 1186.8 0 0 0-210.87 63.512c-5.512 2.235-7.578 9.593-5.111 14.693 2.734 5.651 9.165 7.352 14.693 5.111a1154.1 1154.1 0 0 1 203.73-61.353c2.945 5.007 8.985 6.4 14.248 4.3l73.895-29.528c5.02-2.013 7.235-8.478 5.572-13.295z"/> <path d="m1291 449.95a541.04 541.04 0 0 1-113.18 13.678 12.872 12.872 0 0 0-8.257 2.988 11.9 11.9 0 0 1 0.381-1.56c0.716-2.247 2.446-4.071 5.036-6 4.526-3.365 11.827-5.5 18.371-7.046l1.651-0.383c13.766-3.184 9.858-24.779-3.975-21.643q-0.864 0.2-1.734 0.4c-11.633 2.7-23.508 5.673-34.136 11.213-12.527 6.531-21.331 16.25-28.692 28.135-16.226 26.2-32.2 52.551-48.3 78.826a11.082 11.082 0 0 0 12.806 16.447 53.293 53.293 0 0 0-7.46 11.659c-3.111 6.8-4.015 14.466-4.741 21.838-1.069 10.848-2.316 23.591-10.982 31.31a16.226 16.226 0 0 1-8.588 3.277c-2.846 0.039-3.2-0.044-5.254-0.892 1.4 0.578-0.506-0.516-1.174-0.79-0.411-0.608-1.867-2.249-1.039-0.876-4.427-7.338-13.643-8.281-19.036-1.341a129.36 129.36 0 0 1-65.643 44.61c-11.662 3.358-11.856 20.288 1.127 21.79a131.01 131.01 0 0 0 17.246 0.834 421.95 421.95 0 0 0-53.927 59.207c-8.505 11.325 9.772 23.577 18.269 12.263 0.734-0.978 1.487-1.941 2.23-2.912a11.934 11.934 0 0 0 8.242 1.9 117.35 117.35 0 0 0 21.124-4.459 50.009 50.009 0 0 1 6.9 0.739c3.887 0.685 7.956-1.816 10.12-5.1a7.894 7.894 0 0 0 1.248 1.507c1.346 1.262 2.734 2.429 4.153 3.525a10.654 10.654 0 0 0-1.258 4.163c-0.494 6.269 4.213 10.963 10.107 11.829l136.57 20.055c10.313 1.514 16.345-14.066 7.692-19.68a12.161 12.161 0 0 0 7.567-7.092c2.152-6.188-1.431-11.362-6.776-14-22.735-11.236-48.586-11.048-73.342-11.794-21.991-0.663-45.183-2.567-62.945-16.91a8.51 8.51 0 0 0-3.725-1.668c1.629-1.518 3.325-2.966 5.1-4.324a128.75 128.75 0 0 1 15.015-4.857 138.4 138.4 0 0 1 50.5-4.034 67.928 67.928 0 0 1 11.264 5.661c7.417 4.651 15.722-0.138 17.1-8.274a786.24 786.24 0 0 1 29.583-118.06c6.42-19.2 14.381-37.822 20.9-56.97 3.286-9.65 5.971-19.72 6.822-29.908a80.474 80.474 0 0 0-1.624-22.519 8.438 8.438 0 0 0 3.755 0.854 575.66 575.66 0 0 0 83.454-7.12 10.5 10.5 0 0 0 13.193 3.457l25.033-11.228c11.214-5.034 5.409-23.507-6.776-20.729zm-193.39 220.26c-0.924 0-2.162 0.072-3.382 0.171-0.011-0.041-0.019-0.084-0.03-0.125 0.544-0.621 1.09-1.239 1.623-1.871a8.84 8.84 0 0 0 1.884-6.574 8.306 8.306 0 0 0 0.635-0.852c-0.156 2.953-0.361 5.9-0.7 8.814 3e-3 -0.045-7e-3 0.144-0.03 0.437zm0.093 23.677q-1.8-0.726-3.623-1.381a30.785 30.785 0 0 1 3.9-0.134c-0.092 0.505-0.181 1.01-0.277 1.515z"/> <path d="m1536.8 476.62-112.58-14.938a129.69 129.69 0 0 0 1.356-39.634c-0.694-5.9-7.238-9.862-12.81-8.834-6.171 1.139-9.53 6.888-8.834 12.81a102.5 102.5 0 0 1-3.643 41.33 11.174 11.174 0 0 0 9.529 14.582l125.26 16.62c5.891 0.782 11.38-4.411 11.829-10.108 0.489-6.202-4.201-11.048-10.107-11.828z"/> <path d="m1508.7 528.55-54.872 9.246c-4.573 0.771-9.144 1.552-13.718 2.312-0.025 0-0.99 0.086-1.968 0.2-0.283-0.655-0.57-1.308-0.843-1.968q-5.131-12.072-10.208-24.167c-2.314-5.478-9.538-7.605-14.693-5.111-5.589 2.7-7.432 9.2-5.111 14.693 3.9 9.23 7.242 19.022 11.859 27.91 2.65 5.1 6.632 9 12.311 10.376 5.487 1.331 11.1-0.03 16.547-0.949l64.671-10.9c13.99-2.356 9.981-23.993-3.975-21.642z"/> </g> <g fill="none" stroke="#000" stroke-linecap="round" stroke-linejoin="round" stroke-width="4.252"> <path d="M943.7,318.5c.1-2.8.2-5.7-1.1-8.2s-4.2-4.4-6.9-3.4c-2.1.8-3.2,3.1-4,5.2-4.9,12.7-7.3,26.2-9.6,39.6-.9,5-1.7,10.1-.1,14.9s6.4,8.9,11.3,7.9" data-name="&lt;Trazado&gt;"/> <path d="M948.1,313.2a90.283,90.283,0,0,1,93.1-95.4c-2.9-1.4-5.7-2.8-8.6-4.1a54.886,54.886,0,0,1,21.7-1.4,19.954,19.954,0,0,1,22.3,4.5,35.88,35.88,0,0,1,30.6-12.2c-5.6.4-9.4,6.7-8.7,12.2.7,5.6,4.8,10.2,9.3,13.4" data-name="&lt;Trazado&gt;"/> <path d="M1036.3,297.8a40.363,40.363,0,0,1-8.2,26,29.567,29.567,0,0,0,30,.2,55.982,55.982,0,0,1-15.3,13.8,37.919,37.919,0,0,0,16.4-1c-2.3,2.2-4.5,4.4-6.8,6.5a13.972,13.972,0,0,0,10,1.4,18.929,18.929,0,0,0-4,8.9c3.8-.3,7.7-.7,11.5-1a10.475,10.475,0,0,0,4.9,10.6,10.617,10.617,0,0,0,11.7-.8" data-name="&lt;Trazado&gt;"/> <path d="M1030.6,294.6c-1.5,10.6-11.4,19.5-22.1,19.8-3.4.1-8.3.8-8,4.2a20.209,20.209,0,0,0,1.1,3.2c.6,2.8-2,5.3-4.6,6.3s-5.7,1.3-8,3-3.2,5.7-.7,7.2c-2.8.4-5.5.7-8.3,1.1v10.3a68.244,68.244,0,0,0-35.8,26.2l1.2-39" data-name="&lt;Trazado&gt;"/> <path d="M941.1,325.9c-.6-1.4-1.2-2.8-1.8-4.3a32.931,32.931,0,0,0-5.8,12.6" data-name="&lt;Trazado&gt;"/> <path d="M941.7,326.9a47.5,47.5,0,0,1-6.9,27.5c-.9-.4-1.9-.8-2.8-1.2a11.9,11.9,0,0,0-2.6,10.2" data-name="&lt;Trazado&gt;"/> <path d="m933.3 375.5c-4.3 23.6-8.6 47.2-9.3 71.1s2.4 48.3 12.3 70.1c5.9 13 15.5 25.8 29.4 28.9 15.8 3.5 31.1-6.7 44.1-16.3l44.7-33c26.4-19.5 54.6-41.7 61.8-73.7" data-name="&lt;Trazado&gt;"/> <path d="m980.8 399.4c7.6 3.7 15.2 7.4 22.1 12.2s13.3 10.6 17.5 17.9" data-name="&lt;Trazado&gt;"/> <path d="M997.6,410.8a6.322,6.322,0,0,0-3,5.6,6.223,6.223,0,0,0,3.6,5.2c1.9.8,4.1.6,6.2.3a16.2,16.2,0,0,0,3.8-.9,4.109,4.109,0,0,0,2.4-2.9" data-name="&lt;Trazado&gt;"/> <path d="m1064.4 444.7a27.907 27.907 0 0 1 22.6 10.5" data-name="&lt;Trazado&gt;"/> <path d="m1062.4 445.5a8.67 8.67 0 0 0 16.5 5.2" data-name="&lt;Trazado&gt;"/> <path d="M1056.5,443.1a85.2,85.2,0,0,1,37.6,0,4.573,4.573,0,0,1,2,.9,1.539,1.539,0,0,1,.2,2,66.3,66.3,0,0,1-20.3-2.7c-2.4-.6-4.8-1.4-7.2-1.3a7.428,7.428,0,0,0-6.3,3.3" data-name="&lt;Trazado&gt;"/> <path d="m1027 423.2c-5.4-7.6-10.9-15.3-17.5-21.9s-14.4-12.3-23.4-15.1c16.9 8.5 25.1 29.7 42.7 36.4" data-name="&lt;Trazado&gt;"/> <path d="M1071.1,446.8a4.6,4.6,0,0,0,.7,7.1,4.774,4.774,0,0,1-4.9-2.5,4.714,4.714,0,0,1,1-5.4v5.8" data-name="&lt;Trazado&gt;"/> <path d="M1004,414.4a2.927,2.927,0,0,0-3.2,4.6,3.738,3.738,0,0,1-3.3-1.5,3.838,3.838,0,0,1-.3-3.6l3.6-.3a2.577,2.577,0,0,0-2.5,1.3,2.162,2.162,0,0,0,.6,2.7" data-name="&lt;Trazado&gt;"/> <path d="M1034.3,481.2c-2.7,4-3.5,9-5.6,13.4s-6.5,8.5-11.2,7.5c-2.8-.6-5-2.8-6.6-5.2s-2.8-5.1-4.7-7.2c-2.3-2.7-5.5-4.4-8.4-6.5s-5.6-4.8-6.3-8.2c-.7-3.5,1.7-7.7,5.2-7.7" data-name="&lt;Trazado&gt;"/> <path d="m995.7 510.2c-1.5-4.5-5.7-7.5-9.8-9.7s-8.7-4-12.1-7.3" data-name="&lt;Trazado&gt;"/> <path d="m996.5 510.7a75.759 75.759 0 0 0 17.1 1.7" data-name="&lt;Trazado&gt;"/> <path d="m979.2 518.2a21.57 21.57 0 0 0 17.5 5.4" data-name="&lt;Trazado&gt;"/> <path d="m1108.7 254.2c4.5-9.9 13.2-17.6 23.3-21.9 10-4.3 21.2-5.3 32.1-4.1 14.7 1.6 29.9 7.9 37.6 20.5" data-name="&lt;Trazado&gt;"/> <path d="M1106.9,254.4c1.5-12.7,9.2-24.2,19.8-31.3s23.8-9.8,36.5-8.5a72.389,72.389,0,0,1,35,14.2c3.1,2.3,6.1,4.9,7.5,8.5,1.4,3.5.8,8.2-2.4,10.3" data-name="&lt;Trazado&gt;"/> <path d="m1199.4 247.9a126.42 126.42 0 0 1-3.7 32.4" data-name="&lt;Trazado&gt;"/> <path d="M1170.8,293.2q18,31.95,36.1,63.9c1.6,2.8,3.2,5.6,5.9,7.4a10.445,10.445,0,0,0,14.4-3.5c2.9-5.2.8-11.7-1.7-17.1-9.6-20.6-24.5-39.3-28.7-61.7" data-name="&lt;Trazado&gt;"/> <path d="M1144.2,310.6c5.4,16.2,11.4,32.2,19.8,47.1,7,12.4,15.5,23.9,23.9,35.4,3.1,4.3,6.4,8.6,11,11.3,3.8,2.3,9.4,2.8,12-.8,2.3-3.3.6-7.7-1.1-11.3-7.9-15.8-17.4-30.7-25.2-46.6-7.8-15.8-14-32.9-14.4-50.5" data-name="&lt;Trazado&gt;"/> <path d="m1116.4 321.1c7.1 23.9 20.2 45.5 33.2 66.8 4.4 7.3 8.9 14.6 13.3 21.8 4.4 7.1 9.3 14.7 17.1 17.6 4.5 1.6 10 1.3 13.3-2.2 3-3.2 3.3-8.3 1.9-12.6-1.4-4.2-4.2-7.8-6.9-11.4-16.2-22-26.7-47.6-40.8-71" data-name="&lt;Trazado&gt;"/> <path d="M1110.3,256.5c-10,19.9-20.2,40.4-21.9,62.7-1,12.7.9,25.4,3.4,37.9,1.8,8.7,3.8,17.4,7.3,25.5,3.3,7.9,7.9,15.2,12.4,22.5,3.9,6.4,7.9,12.7,11.8,19.1,3.1,5,7.5,10.7,13.4,10.2,4.7-.4,8.1-5.1,8.6-9.7.5-4.7-1.3-9.3-3.5-13.4-5.4-10.3-13.2-19.3-17.9-29.9-7.3-16.3-6.8-34.9-6.2-52.7" data-name="&lt;Trazado&gt;"/> <path d="M1095.9,379.8c.8,4.5-1.5,8.9-3.9,12.7-2.4,3.9-5,7.9-5.1,12.4-.1,5.4,4.2,10.5,9.5,11.8,6.2,1.4,13.1-2.7,14.8-8.7" data-name="&lt;Trazado&gt;"/> <path d="M1132.1,218.8c5-5.6,10.2-11.2,16.1-15.8,6-4.6,12.8-8.3,20.3-9.5,15.7-2.6,32.2,7,38.9,21.4s3.7,32.5-6.5,44.7c.1-.3.1-.5.2-.8" data-name="&lt;Trazado&gt;"/> <path d="M1155.8,198.5c9.1-10.9,25.6-14,38.7-8.7s22.5,18,25.4,31.9-.3,28.6-7.2,41c-2.9,5.3-7.5,10.9-13.6,10.8" data-name="&lt;Trazado&gt;"/> <path d="m1202.8 192.7a55.635 55.635 0 0 0 21.1-2" data-name="&lt;Trazado&gt;"/> <path d="m1221.3 248.4a89.6 89.6 0 0 0 15.7-8.1" data-name="&lt;Trazado&gt;"/> <path d="m1235.7 240.6a20.135 20.135 0 0 1 15.5-11.2" data-name="&lt;Trazado&gt;"/> <path d="m1225.4 193.2a56.341 56.341 0 0 1 34.5 28.5" data-name="&lt;Trazado&gt;"/> <path d="m1226.7 189.2a449.52 449.52 0 0 1 107.5-1.5" data-name="&lt;Trazado&gt;"/> <path d="M1236.5,238.6A857.45,857.45,0,0,1,1360,174.1c-.6-1.9,1-3.9,3-4.3a5.625,5.625,0,0,1,5.1,2.4,13.429,13.429,0,0,1,2.2,5.4c2.9,12.6,1.5,25.7.2,38.6a16.907,16.907,0,0,1-1.2,5.4,5.179,5.179,0,0,1-4.2,3.1c-1.2,0-2.4-.5-3.6-.6-2.3-.3-4.5.7-6.6,1.6-17.2,7.9-34.3,15.7-51.5,23.6" data-name="&lt;Trazado&gt;"/> <path d="M1237.3,241.8c40.2-17.4,79.8-36.4,118.7-56.7,2.9-1.5,6-3.4,6.8-6.5a5.257,5.257,0,0,1,1-2.8c.8-.7,2.4.1,1.9,1" data-name="&lt;Trazado&gt;"/> <path d="m1218.8 255.8a11.449 11.449 0 0 1 1 14.1" data-name="&lt;Trazado&gt;"/> <path d="m1367.9 172.4c50.4 4.5 100.6 11.4 150.3 20.7" data-name="&lt;Trazado&gt;"/> <path d="M1368.2,226.3c8.8.2,17.6.7,26.3,1.5" data-name="&lt;Trazado&gt;"/> <path d="M1202.9,276q142.8-32.55,285.5-65c2.2-.5,4.6-1,6.7-.1,2.7,1.1,4,4.3,4.2,7.2s-.4,5.8-.3,8.7a258.5,258.5,0,0,1-38.1,14.7c-30,8.9-61.3,12.1-92.2,16.8-55.3,8.4-109.8,21.7-164.1,34.9" data-name="&lt;Trazado&gt;"/> <path d="M1205.1,279.4a9.532,9.532,0,0,1,.7,14.5" data-name="&lt;Trazado&gt;"/> <path d="m1202.9 294.9c2.5 3.8 5.1 7.6 7.6 11.4 1.5 2.2 3 5.1 1.7 7.4" data-name="&lt;Trazado&gt;"/> <path d="m1499.4 209.4c8.6 6.2 17.2 12.4 25.7 18.7 8.5 6.1 17.2 12.4 27.4 14.7" data-name="&lt;Trazado&gt;"/> <path d="m1502.9 230.8a341.01 341.01 0 0 0 34 20.1" data-name="&lt;Trazado&gt;"/> <path d="M1462.7,243.6a59.682,59.682,0,0,1,4.4,10.8,21.41,21.41,0,0,1,.2,11.5,13.1,13.1,0,0,1-7.4,8.5" data-name="&lt;Trazado&gt;"/> <path d="m1224.7 340a1471.2 1471.2 0 0 1 235.5-68.1" data-name="&lt;Trazado&gt;"/> <path d="m1462.4 245.6a1944.7 1944.7 0 0 0-249.2 62.5" data-name="&lt;Trazado&gt;"/> <path d="m1462.9 242.8c28.9 5.9 57.7 11.7 86.6 17.6" data-name="&lt;Trazado&gt;"/> <path d="m1461.9 272.6a496.98 496.98 0 0 0 84.9 21.9" data-name="&lt;Trazado&gt;"/> <path d="M1426.8,294.6c2.7,5.9,5.4,11.9,6.1,18.3.6,6.4-1.2,13.5-6.2,17.6" data-name="&lt;Trazado&gt;"/> <path d="m1427.2 294.6a6.909 6.909 0 0 0-5.9-2.5 24.74 24.74 0 0 0-6.5 1.6c-40.5 14.7-83.5 20.8-126.1 27.4-6.9 1.1-14 2.3-19.5 6.6" data-name="&lt;Trazado&gt;"/> <path d="m1227.4 370.1a997.12 997.12 0 0 1 201.8-39" data-name="&lt;Trazado&gt;"/> <path d="m1429.2 290.9a933.23 933.23 0 0 0 115.2 27.8" data-name="&lt;Trazado&gt;"/> <path d="M1429.1,334.3l56.1,10.2c18.4,3.4,37.1,6.8,54.1,14.7,1.6.7,3.3,1.5,5,1,2.2-.7,3.1-3.3,3.6-5.6,1.5-6.2,2.9-12.5,2.3-18.9-.6-6.3-3.8-12.8-9.4-15.7" data-name="&lt;Trazado&gt;"/> <path d="M1224,371.6c1.6.2,3.3.5,4.9.8,6.7,1.2,13.4,2.4,20.1,3.7" data-name="&lt;Trazado&gt;"/> <path d="M1249.3,371c.2,2.8.4,5.5.6,8.3a1023.557,1023.557,0,0,1,158-31.8c6.9-.8,14.6-2,19-7.4a5.754,5.754,0,0,1,2.6-2.3c2.4-.6,3.9,2.6,4.3,5.1,1.8,10.7,3.6,21.3,5.4,32,.2,1.4.4,3-.5,4.1s-3.2.8-3.2-.6c-7.2,2.9-15,4.1-22.6,5.2q-80.85,12-161.8,23.9c.1,1.9.1,3.8.2,5.7q96-13.05,191.3-30.1" data-name="&lt;Trazado&gt;"/> <path d="m1251.1 370.9a1376.2 1376.2 0 0 1 179-33.5" data-name="&lt;Trazado&gt;"/> <path d="m1440.8 385.2a33.548 33.548 0 0 1 21.4-4.9 10.849 10.849 0 0 0 5.3 1.5" data-name="&lt;Trazado&gt;"/> <path d="m1466.6 382c27.3 5.4 54.6 10.9 81.9 16.3" data-name="&lt;Trazado&gt;"/> <path d="m1502.7 358.3a31.124 31.124 0 0 1 5.1 21.8" data-name="&lt;Trazado&gt;"/> <path d="M1467.8,374.6a1.151,1.151,0,0,1-1.7-.1,21.562,21.562,0,0,0-1.4-24.5" data-name="&lt;Trazado&gt;"/> <path d="M1251.9,412.1c-7.4,1.2-14.9,2.5-22.3,3.7a7.157,7.157,0,0,0-2.9,1,2.419,2.419,0,0,0-.9,2.7c.6,1.2,2.3,1.2,3.7,1,10-1.5,20-3,30.1-4.4" data-name="&lt;Trazado&gt;"/> <path d="m1234.6 421.2a6.845 6.845 0 0 1 1 9.3" data-name="&lt;Trazado&gt;"/> <path d="M1229.6,429.6c-2.6.6-2.4,4.8-.1,6.2s5.1.9,7.7.3q53.1-11.7,106.2-23.5c37.8-8.4,76-16.8,114.8-16.8" data-name="&lt;Trazado&gt;"/> <path d="M1457.6,396.7a2.292,2.292,0,0,0,1.5,2.4,2.234,2.234,0,0,0,2.6-1,4.2,4.2,0,0,0,0-3.3c-.7-2.9-1.5-5.8-2.2-8.7" data-name="&lt;Trazado&gt;"/> <path d="m1460.7 398.3c14.6 3.1 29.3 6.2 43.9 9.3" data-name="&lt;Trazado&gt;"/> <path d="m1263.5 436.7a5.337 5.337 0 0 1 3.6 6.1" data-name="&lt;Trazado&gt;"/> <path d="m1263.5 435.5q94.65-20.25 190.8-32.8" data-name="&lt;Trazado&gt;"/> <path d="M1447.6,409a6.038,6.038,0,0,1-.6-2.2,2.036,2.036,0,0,1,1.1-1.9,2.154,2.154,0,0,1,2.5,1.2,6.065,6.065,0,0,1,.3,3c-.2,3.1-.3,6.2-.5,9.2-.1,1.7-.4,3.8-2,4.3a4.858,4.858,0,0,1-2.9-.3,18.332,18.332,0,0,0-8.4-.4" data-name="&lt;Trazado&gt;"/> <path d="m1447.2 425.8c35.3-5.7 70.9 8.1 106.6 6.8" data-name="&lt;Trazado&gt;"/> <path d="m1456.6 403.1c27.3 3.4 54.5 6.8 81.8 10.2" data-name="&lt;Trazado&gt;"/> <path d="M1393.4,420.8c-.8-1.6.6-3.7,2.4-4s3.5.9,4.6,2.3a14.771,14.771,0,0,1,1.8,5.1c3.3,15,6.4,30.3,5.5,45.7-.2,3.2-.7,6.7-2.8,9.1s-6.5,3.1-8.5.6" data-name="&lt;Trazado&gt;"/> <path d="M1159.7,463.1q82.35-10.05,164.5-22.4c22.6-3.4,45.6-7,66.2-17q-115.5,20.1-231.1,40.2c.1.7.3,1.5.4,2.2" data-name="&lt;Trazado&gt;"/> <path d="M1168.8,465.1c3.2,5.9,6.4,11.9,7.9,18.4s.9,13.8-3,19.2" data-name="&lt;Trazado&gt;"/> <path d="m1164.7 505.7q116.85-17.55 234.7-28.2h-2.8" data-name="&lt;Trazado&gt;"/> <path d="M1165.4,505.7c-2.6-.8-3.9,3.7-1.9,5.5s5,1.4,7.7.9q113.4-21,228.5-30.7" data-name="&lt;Trazado&gt;"/> <path d="M1401.7,485l145.2,6.3c-.6,0-1.2.1-1.8.1" data-name="&lt;Trazado&gt;"/> <path d="m1397.7 418q77.55 12.9 156.1 19.3" data-name="&lt;Trazado&gt;"/> <path d="M1173.1,513c-.6,0-.8,1-.4,1.4a2.114,2.114,0,0,0,1.7.6,247.188,247.188,0,0,0,36.5.7" data-name="&lt;Trazado&gt;"/> <path d="M1217.1,512a3.775,3.775,0,0,0-4.2,4.4c2.1-.7,4.4-1.3,6.4-.5s3.3,3.8,1.6,5.2c-1,.9-2.4.8-3.6,1.3s-2.1,2.3-1,3c15.5.1,31-1.4,46.4-2.9q55.95-5.55,111.8-11.1c1.3.8,3.2.1,4.1-1.2a9.817,9.817,0,0,0,1.3-4.5,82.487,82.487,0,0,0,.4-8.6c0-3.1-.4-6.6-2.9-8.4-2.1-1.5-4.9-1.2-7.5-.8q-77.7,11.25-155.5,22.4" data-name="&lt;Trazado&gt;"/> <path d="m1217.5 517.2q66.15-8.7 131.9-20.1" data-name="&lt;Trazado&gt;"/> <path d="M1219.5,522.6c52.3-1.4,104.1-10.5,155.6-19.5.2.7.4,1.5.6,2.2-.3-2,.5-3.9,1.1-5.8s.9-4.1-.2-5.8-4.1-2-4.9-.1a147.763,147.763,0,0,0-22.8,4.3" data-name="&lt;Trazado&gt;"/> <path d="M1381.2,488.5c12.9-.5,25.7-.9,38.6-1.4" data-name="&lt;Trazado&gt;"/> <path d="M1380.7,510.1c42-3.4,84.1-2.1,126.2-.7,17.6.6,35.3,1.1,52.9,1.7" data-name="&lt;Trazado&gt;"/> <path d="M1390.9,518.7c-1.2-2.5,1.6-5.4,4.3-5.4s5.1,1.9,7,4a41.189,41.189,0,0,1,10.6,22.9,14.144,14.144,0,0,1-.5,6.8,6.627,6.627,0,0,1-5,4.3c-2.3.3-4.8-1.5-4.7-3.8-14.3,0-28.6.1-42.9.4" data-name="&lt;Trazado&gt;"/> <path d="m1255 538.2a12.574 12.574 0 0 1 2 14.5" data-name="&lt;Trazado&gt;"/> <path d="M1253.3,533.8c-.5-.9-2.2-.4-2.3.7a2.251,2.251,0,0,0,2,2.2,7.168,7.168,0,0,0,3.2-.5,403.674,403.674,0,0,1,138.4-19.8" data-name="&lt;Trazado&gt;"/> <path d="m1254.9 531.2a918.6 918.6 0 0 1 139.2-18.8" data-name="&lt;Trazado&gt;"/> <path d="M1397.2,511.6c34.4.3,68.8.5,103.2.8" data-name="&lt;Trazado&gt;"/> <path d="M1408.7,548.5q55.8-.15,111.7-.2" data-name="&lt;Trazado&gt;"/> <path d="m1152.3 573.7a16.659 16.659 0 0 1 1.7 8.5" data-name="&lt;Trazado&gt;"/> <path d="M1336.8,553.2c1.2-1.7,2.5-3.5,3.7-5.2.5-.7,1.2-1.5,2.1-1.3.8.2,1,1.2,1.1,2.1a76.988,76.988,0,0,1,0,17.3,6.027,6.027,0,0,1-.6,2.3,2.348,2.348,0,0,1-1.9,1.3,1.3,1.3,0,0,1-1.3-1.6l-2.7.3" data-name="&lt;Trazado&gt;"/> <path d="m1144.3 583.6q95.4-10.95 191.4-14.8" data-name="&lt;Trazado&gt;"/> <path d="M1144.4,588.4q26.7-1.35,53.4-4.8c21.9-2.8,43.7-6.6,65.6-8.6,36.6-3.4,73.5-1.6,110.2.1" data-name="&lt;Trazado&gt;"/> <path d="M1377.8,573.5c46.5-4.1,93.2-.2,139.7,3.8,9.5.8,19.1,1.6,28.6,2.5" data-name="&lt;Trazado&gt;"/> <path d="M1152.6,570.8a6.636,6.636,0,0,1-7.5-.4,753.317,753.317,0,0,1,177.7-17.6c4.7.1,9.9.1,13.5-2.9,1.8-1.5,3.2-3.8,5.4-4.5,2.3-.7,5.3,1.9,3.7,3.7a18.64,18.64,0,0,0,2-1" data-name="&lt;Trazado&gt;"/> <path d="m1154.9 571q91.8-11.25 184.4-16.4" data-name="&lt;Trazado&gt;"/> <path d="M1147.2,589.7c18-1.5,35.9-3,54-3.1,19.4-.2,38.8,1.2,58.2-.6a8.889,8.889,0,0,1,2.7,11c-.5-.1-1-.3-1.5-.4" data-name="&lt;Trazado&gt;"/> <path d="M1258,583.1c-.1.8-.3,1.6-.4,2.3a2.759,2.759,0,0,1-.6-3.5,2.854,2.854,0,0,1,3.4-1.1,2.2,2.2,0,0,1-.8-.1" data-name="&lt;Trazado&gt;"/> <path d="m1260.2 598.5a2.2 2.2 0 0 0-1.6 3" data-name="&lt;Trazado&gt;"/> <path d="m1265.4 597.7a1061.7 1061.7 0 0 0 143.8 0.5c2.4-0.2 4.9-0.3 7.1-1.3" data-name="&lt;Trazado&gt;"/> <path d="M1415.3,577.7a12.48,12.48,0,0,1,.3,9.3,12.9,12.9,0,0,1-6.3,6.9" data-name="&lt;Trazado&gt;"/> <path d="M1258.7,582.8q76.05-3.3,152-6.6a4.246,4.246,0,0,1,2.7.5,1.482,1.482,0,0,1,.3,2.3" data-name="&lt;Trazado&gt;"/> <path d="m1412.6 577.2a712.09 712.09 0 0 1 80 2.7" data-name="&lt;Trazado&gt;"/> <path d="M1410.8,596.6c24,.1,48.1.2,72.1.4" data-name="&lt;Trazado&gt;"/> <path d="m1478.5 597.7a25.024 25.024 0 0 1-4.5 26" data-name="&lt;Trazado&gt;"/> <path d="m1208.2 607.4c5.4 2.6 8.2 9 8 15s-2.9 11.6-6 16.7" data-name="&lt;Trazado&gt;"/> <path d="m1244.8 633.6c-15.7 2-29.9 13.3-35.6 28.1" data-name="&lt;Trazado&gt;"/> <path d="m1209.9 637.3a6.055 6.055 0 0 1 3.5 6.1" data-name="&lt;Trazado&gt;"/> <path d="M1247.4,631.5c69.9-7.2,140.4.9,210.7-1.2,5.8-.2,12.5-.8,15.8-5.6" data-name="&lt;Trazado&gt;"/> <path d="M1481.7,627.6c10.5-.8,21.1-1.2,31.7-1" data-name="&lt;Trazado&gt;"/> <path d="M1483.8,597.4c7.8,0,15.7-.1,23.5-.1" data-name="&lt;Trazado&gt;"/> <path d="M1210.1,604.5c-.1.2-.4.1-.5-.1a.271.271,0,0,1,.4-.2" data-name="&lt;Trazado&gt;"/> <path d="M1261.4,605.8c-19.3.4-38.6.9-57.9,1.3-1.1-1.6-.2-4.1,1.5-5.2s3.8-1.2,5.8-1.3q43.8-2.25,87.8-2.6" data-name="&lt;Trazado&gt;"/> <path d="m1482.7 631.7c2.2 5 4.2 10.3 4 15.7s-3 11.1-8 13.3" data-name="&lt;Trazado&gt;"/> <path d="m1265.9 640.8a9.771 9.771 0 0 1 6.4 15.1" data-name="&lt;Trazado&gt;"/> <path d="M1275.8,634.9c-5.6.5-11.3.9-16.9,1.4a3.858,3.858,0,0,1-2.8-.5,1.974,1.974,0,0,1-.6-1.2,3.148,3.148,0,0,1,3.8-3.4" data-name="&lt;Trazado&gt;"/> <path d="m1278 657.6c-5.3-3-12.9-0.5-15.4 5a706.43 706.43 0 0 0 79.7-2" data-name="&lt;Trazado&gt;"/> <path d="m1275.9 659a607 607 0 0 1 88.4-3.7" data-name="&lt;Trazado&gt;"/> <path d="M1472.4,660.1a5.363,5.363,0,0,0,3.9,3.8,5.614,5.614,0,0,0,5.2-1.7,3.626,3.626,0,0,0,.9-3,2.26,2.26,0,0,0-2.3-1.9" data-name="&lt;Trazado&gt;"/> <path d="M1479.3,665.5c22.3-.2,44.7-.4,67-.7" data-name="&lt;Trazado&gt;"/> <path d="M1524.8,627.2l4.8-.3" data-name="&lt;Trazado&gt;"/> <path d="M1496.8,646.8l.9,6.3" data-name="&lt;Trazado&gt;"/> <path d="m1500.4 630.4a20.119 20.119 0 0 1 11 14.9 19.879 19.879 0 0 1-6.2 17.5" data-name="&lt;Trazado&gt;"/> <path d="m1517.8 630.9a18.348 18.348 0 0 1 6.7 10.1 18.685 18.685 0 0 1-1.1 12.1" data-name="&lt;Trazado&gt;"/> <path d="M1174,665.4c-2-1.3-4.3,2.3-2.9,4.3s4.2,2.2,6.6,2.3c89.6,2.7,179.6-10.4,268.8-.9.7-1.6,1.3-3.2,2-4.9a94.754,94.754,0,0,1-2,37.1c-1.5-.2-3.1-.4-4.6-.6l-264.6,1.5a5.518,5.518,0,0,0-3.4.7c-1,.7-1.3,2.3-.4,3,69.3,6.2,139.1,4.5,208.6,2.9l49.6-1.2c7.5-.2,15.5-.5,21.5-5.1,5.9-4.6,7.7-15,1.4-19.1" data-name="&lt;Trazado&gt;"/> <path d="m1459.1 704.4c27.3-1 54.5-1.9 81.8-2.9" data-name="&lt;Trazado&gt;"/> <path d="m1450.9 666.7a249.72 249.72 0 0 1 28.7-1.6" data-name="&lt;Trazado&gt;"/> <path d="m1178.4 665.7q48.3-3.3 96.6-3.3" data-name="&lt;Trazado&gt;"/> <path d="M1211.4,712.8c-.1,1-.2,2-.3,2.9,53,2.2,106.2,4.5,159.1,1.2,30.4-1.9,60.9-5.5,91.2-2.2,9.9,1.1,20.2,2.9,29.8.1-.6,14.1-1.2,28.3-1.8,42.4-1.1-.9-2.3-1.8-3.4-2.8-14.9.2-29.9.3-44.8.5-25.5.3-51,.5-76.4-1-51.8-3.1-104.2-13.5-155.1-3.2q133.5,9.3,267.3,12.7c4.1.1,8.5.2,12.2-1.8,6.9-3.7,8.6-12.7,9.4-20.5.6-5.4,1.2-10.9.2-16.2s-3.8-10.6-8.5-13.3c-5.4-3.1-12.1-2.3-18.2-1.4" data-name="&lt;Trazado&gt;"/> <path d="m1490.7 759.9 56.1-9.9" data-name="&lt;Trazado&gt;"/> <path d="m1509.5 727.3a22.769 22.769 0 0 1 4.5 16.3" data-name="&lt;Trazado&gt;"/> <path d="m1520 724.6a19.406 19.406 0 0 1 5.8 17.2" data-name="&lt;Trazado&gt;"/> <path d="m1534.4 724.7a16.349 16.349 0 0 1 1.5 16.9" data-name="&lt;Trazado&gt;"/> <path d="M1214.4,718.9a1.656,1.656,0,0,1-.5-1.2,18.668,18.668,0,0,1,7.5,19.3" data-name="&lt;Trazado&gt;"/> <path d="M1259,757.3c-1.1.3-1.1,1.9-.3,2.6a3.718,3.718,0,0,0,3.1.4,8.808,8.808,0,0,1,3.2-.4" data-name="&lt;Trazado&gt;"/> <path d="m1263.4 763.9a19.889 19.889 0 0 1 5.8 19.8" data-name="&lt;Trazado&gt;"/> <path d="m1272 785.6-15 2.1c2.2 3.9 7.6 4.2 12.1 4.1q100.2-3 200.3-5.9c8.3-0.2 17.5-0.2 23.7 5.2 1.2 1 2.6 2.3 4.1 1.7 1.7-0.7 1.5-3.1 1-4.8a103.58 103.58 0 0 0-9-22.1" data-name="&lt;Trazado&gt;"/> <path d="m1499.4 795.8c14.9-4.8 29.9-9.1 45.1-12.6" data-name="&lt;Trazado&gt;"/> <path d="m1504.9 776.8a93.883 93.883 0 0 0 17.5-8.4" data-name="&lt;Trazado&gt;"/> <path d="m1521.5 756.6a9.25 9.25 0 0 1 8.1 3.7 13.109 13.109 0 0 1 2.4 8.8 25.2 25.2 0 0 1-2.5 8.9" data-name="&lt;Trazado&gt;"/> <path d="m1531.8 754.8a29.425 29.425 0 0 1 7.5 23.9" data-name="&lt;Trazado&gt;"/> <path d="m1270.7 762.6a131.41 131.41 0 0 1 27.9-4.8" data-name="&lt;Trazado&gt;"/> <path d="M1256,789.8c-2.3.9-4.9.5-7.3.2-2.4-.4-5-.8-7.4-.1s-4.5,2.9-4.2,5.4" data-name="&lt;Trazado&gt;"/> <path d="m1009.6 766.6c-8.7-7.9-8.7-22.5-2.2-32.3s17.8-15.4 29.3-17.9c24.9-5.4 50.6 1.7 75.9 4.8 31.3 3.9 63.5 1.6 93.9 9.7" data-name="&lt;Trazado&gt;"/> <path d="m1169.5 762.1a34.125 34.125 0 0 1 15.8-14.7 34.487 34.487 0 0 1 21.5-2.1" data-name="&lt;Trazado&gt;"/> <path d="m1177 761.5a41.109 41.109 0 0 1 29.2-9.9" data-name="&lt;Trazado&gt;"/> <path d="m1158.7 765.4a44.8 44.8 0 0 1 34.5-30.4" data-name="&lt;Trazado&gt;"/> <path d="M1160.4,800.7a8.344,8.344,0,0,0-.8,1.2c-2.1-6.6-4.1-13.4-4.6-20.3s.7-14.2,4.8-19.9" data-name="&lt;Trazado&gt;"/> <path d="m1175.5 774.4a12.153 12.153 0 0 1 7.1-5.6 30.75 30.75 0 0 1 9.1-1.2 156.24 156.24 0 0 1 54.3 8c5.8 2 11.9 4.5 18 3.4" data-name="&lt;Trazado&gt;"/> <path d="m1177.4 781.4a40.553 40.553 0 0 0-5.1 18.3" data-name="&lt;Trazado&gt;"/> <path d="M1170.6,802.2c-.5,2.8-3.5,4.7-6.4,4.9-2.9.1-5.6-1.2-8-2.8a14.28,14.28,0,0,0,7.1.6" data-name="&lt;Trazado&gt;"/> <path d="m1175.1 792.1a259.73 259.73 0 0 1 48.3-0.3" data-name="&lt;Trazado&gt;"/> <path d="M1178,796.4a10.973,10.973,0,0,0,.8,4,9.079,9.079,0,0,1,.6,4,3.2,3.2,0,0,1-2.5,2.8" data-name="&lt;Trazado&gt;"/> <path d="M1177.2,808.8h-12.1c-1,0-2.2.1-2.7,1a2.893,2.893,0,0,0,.1,2.4c1,3.1,1.9,6.2,2.9,9.3" data-name="&lt;Trazado&gt;"/> <path d="m1171.5 819.5a210.78 210.78 0 0 1 72.6 1.2" data-name="&lt;Trazado&gt;"/> <path d="m1232.3 799.2a54.613 54.613 0 0 0 2.4 17 11.665 11.665 0 0 0 1.6 3.6 4.454 4.454 0 0 0 3.4 1.8" data-name="&lt;Trazado&gt;"/> <path d="m1240.4 801.5a35.826 35.826 0 0 1 6 6.3 14.56 14.56 0 0 1 3 8 8.592 8.592 0 0 1-3.8 7.4" data-name="&lt;Trazado&gt;"/> <path d="m1239.7 797.7a470.71 470.71 0 0 1 66.1 1.4" data-name="&lt;Trazado&gt;"/> <path d="M1020.3,769.4c3.7.2,7.5.3,11.2.5" data-name="&lt;Trazado&gt;"/> <path d="M1064.7,776.8l4.2.6" data-name="&lt;Trazado&gt;"/> <path d="M1082.7,779.6a4.409,4.409,0,0,0,4,.8" data-name="&lt;Trazado&gt;"/> <path d="m1105.1 785a46.418 46.418 0 0 1 14.5 5.1" data-name="&lt;Trazado&gt;"/> <path d="m1136.2 796.2a9.991 9.991 0 0 1 5.8 1.6" data-name="&lt;Trazado&gt;"/> <path d="M876.1,766.2q63.15.6,126.1-4.8" data-name="&lt;Trazado&gt;"/> <path d="m931.4 379.6a50.236 50.236 0 0 1-28.3 33" data-name="&lt;Trazado&gt;"/> <path d="m917.4 358.9c-21.1 39.9-16.4 92.1 11.5 127.6" data-name="&lt;Trazado&gt;"/> <path d="M918.8,357.9c-13.6,10.6-28,22.5-32,39.2-1.8,7.6-1.3,15.6-.3,23.4,2,16.2,5.7,32.4,13.4,46.8s19.8,26.8,35,32.7" data-name="&lt;Trazado&gt;"/> <path d="M880.5,395a18.324,18.324,0,0,1-18.9.4c.2,2.4.5,4.8.7,7.1a4.706,4.706,0,0,1-6-3.5" data-name="&lt;Trazado&gt;"/> <path d="M868.3,402.8c-.7,3.2-4.7,4.7-7.8,3.8s-5.5-3.4-7.4-6-3.7-5.4-6.4-7.3a12.379,12.379,0,0,0-9.5-2.2c-8,1.5-13.3,10.3-21.4,11.3" data-name="&lt;Trazado&gt;"/> <path d="M834.2,411.8a43.426,43.426,0,0,0-24.8-6.8c-1.2,0-2.6.3-2.9,1.4-.4,1.5,1.3,2.5,2.8,3,2.4.8,4.9,1.5,7.3,2.3,2.5.8,5.3,1.9,6.1,4.4.7,2.3-.9,4.9-3,5.9a10.744,10.744,0,0,1-7.1.3c-2.4-.6-4.6-1.5-7-2a17.582,17.582,0,0,0-11.7,1.7" data-name="&lt;Trazado&gt;"/> <path d="M816.8,426.4c-10.7-4.1-22.7-3.5-33.8-.5s-21.3,8.2-31.5,13.5l-26.4,13.5a9.633,9.633,0,0,1,5.8,9.6" data-name="&lt;Trazado&gt;"/> <path d="m716.5 467.8c21.5-2 43.8 8 56.7 25.3" data-name="&lt;Trazado&gt;"/> <path d="m718.1 472.8a97.341 97.341 0 0 1 57.9 27.6" data-name="&lt;Trazado&gt;"/> <path d="m715 469.4c-10.4 28.7-21 57.4-32 85.9 12.7-7.3 25.9-14.3 40.4-16.1s30.6 2.7 39 14.7" data-name="&lt;Trazado&gt;"/> <path d="m699.8 556.7a92.974 92.974 0 0 1 52-10.4 10.324 10.324 0 0 1 4.9 1.4 3.9 3.9 0 0 1 1.6 4.5c-0.9 2-3.6 2.1-5.8 2a255.21 255.21 0 0 0-48.6 2.6" data-name="&lt;Trazado&gt;"/> <path d="m793 555.8a86.015 86.015 0 0 1 27.6 42.1" data-name="&lt;Trazado&gt;"/> <path d="M803.9,593a47.248,47.248,0,0,1,12.3,10.4c1,1.2,2,2.7,1.7,4.3a3.867,3.867,0,0,1-3.7,2.9,11.842,11.842,0,0,1-4.9-.9,224.453,224.453,0,0,1-28.1-12.1,40.005,40.005,0,0,0,15.8,15,125.874,125.874,0,0,0-29.1-17.7c-2.3-1-5.3-1.7-6.9.2-1.2,1.5-.6,3.9.9,5.2a12.4,12.4,0,0,0,5.2,2.4,101.746,101.746,0,0,1,30.4,15.1,20.034,20.034,0,0,1,5.8,5.8,7.548,7.548,0,0,1,.2,7.8c.8.9,1.5,1.9,2.3,2.8-9.1,2.9-18.2,5.8-27.3,8.6,1,.2,2,.3,3,.5" data-name="&lt;Trazado&gt;"/> <path d="M791.7,651.8a19.022,19.022,0,0,1,.5,11.8" data-name="&lt;Trazado&gt;"/> <path d="M673.4,559.4A292.545,292.545,0,0,0,648.3,629c-.9,4-1.3,8.9,2,11.3,3,2.2,8.6,1.6,9.3,5.3.3,1.4-.5,2.8-1.2,4.1l-14.1,25.2c1.3.3,2.6.7,3.9,1" data-name="&lt;Trazado&gt;"/> <path d="m651.1 678.7a82.228 82.228 0 0 0-1.8 46.1" data-name="&lt;Trazado&gt;"/> <path d="m646.1 720.2a57.984 57.984 0 0 0 60.3 53.7" data-name="&lt;Trazado&gt;"/> <path d="m660 670.4a5.142 5.142 0 0 0-2.4 6 165.77 165.77 0 0 1 57.8-11.1" data-name="&lt;Trazado&gt;"/> <path d="m686.7 685.3c14.7 2.2 30.1-6.6 44.3-2.1" data-name="&lt;Trazado&gt;"/> <path d="m707.3 701.5a31.891 31.891 0 0 1 23.9-4.2" data-name="&lt;Trazado&gt;"/> <path d="m732.8 702.8c-15.3 1.8-28.6 14.4-31.2 29.6" data-name="&lt;Trazado&gt;"/> <path d="M731.9,728.4c-3.6-9.1,2.4-19.9,11.1-24.5s19.1-4.3,28.8-2.7,19.2,4.4,29.1,4.6c5.1.1,10.4-.6,15.1,1.3,5.1,2.1,8.7,6.8,11.9,11.3,11.4,15.7,22.7,31.3,34.1,47,2.6,3.6,5.3,8.1,3.4,12.1-1.1,2.4-3.8,3.9-6.4,4.5-5.9,1.4-12-.7-17.2-3.9s-9.5-7.4-14.3-11c-18.7-14.1-43-18.1-66.2-21.6" data-name="&lt;Trazado&gt;"/> <path d="m842.8 779.3c4 7 0 16.5-6.9 20.6s-15.6 3.7-23.3 1.3c-7.6-2.4-14.6-6.6-21.9-9.9a101.36 101.36 0 0 0-40.6-9" data-name="&lt;Trazado&gt;"/> <path d="m795.3 798.7a14.861 14.861 0 0 1-4.2 18.5" data-name="&lt;Trazado&gt;"/> <path d="m806.1 767.2a9.928 9.928 0 0 1-2.6 9" data-name="&lt;Trazado&gt;"/> <path d="m819.4 720.6a21.717 21.717 0 0 1-3.8 20.1" data-name="&lt;Trazado&gt;"/> <path d="M819.4,797.7c5,5.7,2.7,15.2-2.8,20.4s-13.2,7.3-20.6,9.1c-10,2.5-20,5-30.3,5.5s-20.9-1.3-29.5-6.9c1.3.1,2.6.1,3.9.2" data-name="&lt;Trazado&gt;"/> <path d="M809.4,822.2c1.2,6.3-2.7,12.8-8,16.5s-11.8,5.2-18.1,6.6c-15.2,3.4-30.7,6.9-46.2,5.7-6.7-.5-13.6-2-19.1-5.9s-9.5-10.5-8.6-17.2c.8-6.4,5.8-12.6,3.9-18.8-1.7-5.4-7.8-8.1-10.2-13.2-4.2-9.2,5.9-18.9,5.7-28.9-.1-3.8-1.6-7.4-1.2-11.2,1.4-13.1,23.8-16.2,24.4-29.4" data-name="&lt;Trazado&gt;"/> <path d="M824.8,714.2c7.8-6.6,19.4-7,29.1-3.7s17.9,9.7,26,16c2,1.6,4,3.2,4.9,5.6,1,2.8.1,5.9-.8,8.8-1.7,5.3-3.4,10.7-5,16-1.1,3.4-2.3,7-5.1,9.1s-7.8,1.6-8.9-1.8" data-name="&lt;Trazado&gt;"/> <path d="M794.3,693.3c5.8-13.4,11.6-26.7,17.3-40.1,2.5-5.9,5.1-12,4.7-18.4-.7-9.9-8.5-18-17.1-22.9s-18.4-7.6-27.1-12.5" data-name="&lt;Trazado&gt;"/> <path d="m824.2 632.4c1.9-11.7 3.8-23.7 1.3-35.2-4-18.1-19.9-33.1-38.2-36" data-name="&lt;Trazado&gt;"/> <path d="M834.4,600.8a462.5,462.5,0,0,1,.3-47.1" data-name="&lt;Trazado&gt;"/> <path d="M837.6,530.2q3.3,79.2.7,158.6" data-name="&lt;Trazado&gt;"/> <path d="m876 592.1c-1 4.1-2.1 8.3-1.5 12.5s3.2 8.4 7.2 9.6 8.3-0.9 11.4-3.7c6.4-5.8 9.1-14.5 11.6-22.8a307.76 307.76 0 0 1 4.4 31.6" data-name="&lt;Trazado&gt;"/> <path d="M966.2,552.4c-5.7,20.5-.1,42.2.3,63.5.5,25.9-6.6,51.2-13.6,76.1" data-name="&lt;Trazado&gt;"/> <path d="m774.9 698.9a365.44 365.44 0 0 1-54.5-79.9c-1.3-2.6-2.6-5.3-2.3-8.2 0.2-2.9 2.6-5.7 5.5-5.4s4.5 3.4 6.6 5.5c2.1 2 4.9 3.1 7.3 4.7 3.5 2.4 6 6.1 8.3 9.7q24.9 38.1 49.7 76.2" data-name="&lt;Trazado&gt;"/> <path d="M848.8,792.4c-1.1-.7-2.2-1.3-3.3-2l33,33.3c-7-12.9-14.1-25.8-21.1-38.7" data-name="&lt;Trazado&gt;"/> <path d="m1164.9 821.1q-153.3 34.8-305.7 73.6" data-name="&lt;Trazado&gt;"/> <path d="m794 851.4a96.224 96.224 0 0 1 47.5 27.3" data-name="&lt;Trazado&gt;"/> <path d="m791 854.8c7 7.8 16.9 12.3 26.1 17.3 9.3 4.9 18.7 11.1 23.1 20.6" data-name="&lt;Trazado&gt;"/> <path d="m895 904.1a1498 1498 0 0 1 286.5-78.9" data-name="&lt;Trazado&gt;"/> <path d="m1028.1 596.3 50.4-6" data-name="&lt;Trazado&gt;"/> <path d="M1083.7,590.2c-2,8.4-1,17.3-2.2,25.8-1.2,8.6-5.5,17.7-13.7,20.4-5.6,1.9-11.7.3-17.1-2.1-8-3.5-15.4-9.4-18.3-17.6s.2-18.8,8.2-22.3" data-name="&lt;Trazado&gt;"/> <path d="m1183.5 517.5a309.13 309.13 0 0 0-30.8 51.2" data-name="&lt;Trazado&gt;"/> <path d="m1148.8 593.6q-15.45 56.85-30.8 113.6" data-name="&lt;Trazado&gt;"/> <path d="M1121.1,704.1c1.2.1,2.3.2,3.5.4.9,1.7,0,3.8-1.1,5.3s-2.6,2.9-3,4.8c-.6,2.9,1.5,5.5,3.1,7.9s2.8,6,.6,8.1" data-name="&lt;Trazado&gt;"/> <path d="M1133.7,631.5a76.535,76.535,0,0,1-46.9,33.2c-.2-1.1-.3-2.2-.5-3.4" data-name="&lt;Trazado&gt;"/> <path d="m1120.6 662.5a98.557 98.557 0 0 1-38.2 21.2" data-name="&lt;Trazado&gt;"/> <path d="m1120.9 677.9a126.22 126.22 0 0 1-57.6 36.9" data-name="&lt;Trazado&gt;"/> </g> </svg>