<svg xmlns="http://www.w3.org/2000/svg" xmlns:xlink="http://www.w3.org/1999/xlink" width="2500" height="314" viewBox="0 0 2500 314">
  <defs>
    <clipPath id="clip-Web_1920_1">
      <rect width="2500" height="314"/>
    </clipPath>
  </defs>
  <g id="Web_1920_1" data-name="Web 1920 – 1" clip-path="url(#clip-Web_1920_1)">
    <rect width="2500" height="314" fill="#fff"/>
    <g id="truist" transform="translate(197.999 -16.193)">
      <g id="svg_1" transform="translate(21.001 21)">
        <g id="truist-logo">
          <g id="global_truist-logo--purple" data-name="global/truist-logo--purple">
            <path id="tru_lg_hrz_rgb_pos" d="M2008.144,299.793V187.976H1886.958v55.412h-46.366V103h46.366V158.41h121.186V46.593H1611.073V158.41h121.191V103h46.366V243.387h-46.366V187.976H1611.073V299.793Zm-437.209-2.236V48.83c0-17.392,16.37-27.83,43.644-27.83h390.058c27.28,0,43.644,10.438,43.644,27.83V297.557c0,17.392-16.365,27.83-43.644,27.83H1614.579C1587.3,325.387,1570.935,314.948,1570.935,297.557Zm-254.417-37.385V114.065h-86.509V86.235h220.553v27.83h-86.5V260.172Zm-226.759-74.794c-36.631-7.95-76.379-17.888-76.379-50.439,0-31.805,37.02-52.426,93.917-52.426a235.822,235.822,0,0,1,66.243,9.193V123.51c-21.435-8.451-42.865-13.42-66.243-13.42-28.059,0-45.6,8.447-45.6,21.867,0,15.9,22.994,20.625,59.235,28.575,36.631,7.95,76.373,17.888,76.373,50.439,0,32.3-37.8,52.927-95.86,52.927a250.743,250.743,0,0,1-78.711-12.178v-32.3c24.942,9.938,49.878,16.895,78.711,16.895,29.228,0,47.54-8.944,47.54-22.364,0-15.9-22.988-20.621-59.229-28.575ZM886.367,260.172h47.54V86.235h-47.54ZM577.4,192.831V86.236h47.54v106.1c0,27.085,23.383,43.731,61.957,43.731s61.957-16.646,61.957-43.731V86.236h47.54v106.6c0,42.244-44.034,71.067-109.5,71.067s-109.5-28.824-109.5-71.067ZM408.7,171.216c26.885,0,46.372-11.926,46.372-28.824,0-16.646-19.487-28.575-46.372-28.575H349.853v57.4H408.7Zm8.572,53.921C404.023,207.742,397,198.3,366.223,198.3h-16.37v61.871H302.318V86.235H409.083c55.728,0,94.7,22.861,94.7,55.412,0,26.836-24.942,44.973-63.515,51.184,17.528,11.432,23.372,26.343,35.061,33.8,6.624,4.224,13.643,6.708,24.558,6.708a69.062,69.062,0,0,0,10.91-.745v27.581a132.707,132.707,0,0,1-17.149,1.242c-47.151,0-61.567-16.65-76.373-36.277ZM107.509,260.172V114.065H21V86.235H241.553v27.83h-86.5V260.172h-47.54Z" transform="translate(-21.001 -21)" fill="#2e1a47" fill-rule="evenodd"/>
          </g>
        </g>
      </g>
    </g>
  </g>
</svg>
